<svg width="99" height="36" viewBox="0 0 99 36" fill="none" xmlns="http://www.w3.org/2000/svg">
<path d="M12.4288 14.0262C12.3517 13.2484 12.0207 12.6442 11.4357 12.2135C10.8507 11.7828 10.0569 11.5674 9.05406 11.5674C8.37268 11.5674 7.79736 11.6639 7.3281 11.8567C6.85885 12.0431 6.49887 12.3035 6.24817 12.6377C6.0039 12.972 5.88177 13.3513 5.88177 13.7755C5.86891 14.1291 5.94283 14.4376 6.10354 14.7012C6.27067 14.9647 6.49887 15.1929 6.78814 15.3858C7.0774 15.5722 7.41167 15.7361 7.79093 15.8775C8.17019 16.0125 8.57516 16.1282 9.00585 16.2246L10.78 16.6489C11.6414 16.8417 12.4321 17.0989 13.152 17.4203C13.872 17.7417 14.4955 18.137 15.0226 18.6063C15.5497 19.0755 15.9579 19.6284 16.2472 20.2647C16.5429 20.9011 16.6939 21.6307 16.7004 22.4535C16.6939 23.662 16.3854 24.7098 15.7747 25.5969C15.1705 26.4776 14.2962 27.1622 13.152 27.6507C12.0142 28.1328 10.6418 28.3739 9.03478 28.3739C7.44059 28.3739 6.05211 28.1296 4.86933 27.6411C3.69298 27.1525 2.77375 26.4293 2.11165 25.4715C1.45598 24.5073 1.11207 23.3149 1.07993 21.8943H5.12003C5.16503 22.5564 5.35466 23.1092 5.68892 23.5527C6.02961 23.9899 6.4828 24.3209 7.04848 24.5459C7.62058 24.7645 8.26661 24.8737 8.98657 24.8737C9.69366 24.8737 10.3076 24.7709 10.8282 24.5652C11.3553 24.3595 11.7635 24.0734 12.0528 23.707C12.3421 23.3406 12.4867 22.9196 12.4867 22.4439C12.4867 22.0003 12.3549 21.6275 12.0914 21.3254C11.8342 21.0233 11.455 20.7661 10.9536 20.554C10.4586 20.3419 9.85115 20.149 9.1312 19.9755L6.98098 19.4355C5.31609 19.0305 4.00153 18.3974 3.0373 17.536C2.07308 16.6746 1.59418 15.5143 1.60061 14.0551C1.59418 12.8595 1.91238 11.8149 2.55519 10.9214C3.20444 10.0279 4.09474 9.33044 5.22609 8.82905C6.35745 8.32765 7.64308 8.07695 9.08299 8.07695C10.5486 8.07695 11.8278 8.32765 12.9206 8.82905C14.0198 9.33044 14.8748 10.0279 15.4854 10.9214C16.0961 11.8149 16.4111 12.8499 16.4304 14.0262H12.4288ZM17.9315 33.6482V13.2838H21.9813V15.7715H22.1645C22.3445 15.3729 22.6048 14.9679 22.9455 14.5565C23.2926 14.1387 23.7426 13.7916 24.2954 13.5152C24.8546 13.2323 25.5489 13.0909 26.3781 13.0909C27.4581 13.0909 28.4544 13.3738 29.3672 13.9394C30.28 14.4987 31.0096 15.344 31.556 16.4753C32.1024 17.6003 32.3756 19.0112 32.3756 20.7083C32.3756 22.3603 32.1088 23.7552 31.5753 24.893C31.0482 26.0244 30.3282 26.8825 29.4154 27.4675C28.5091 28.046 27.4934 28.3353 26.3685 28.3353C25.5714 28.3353 24.8932 28.2035 24.334 27.94C23.7811 27.6764 23.328 27.3454 22.9744 26.9468C22.6209 26.5418 22.3509 26.1336 22.1645 25.7222H22.0391V33.6482H17.9315ZM21.9523 20.689C21.9523 21.5697 22.0745 22.3378 22.3187 22.9935C22.563 23.6492 22.9166 24.1602 23.3794 24.5266C23.8422 24.8866 24.4047 25.0666 25.0668 25.0666C25.7353 25.0666 26.301 24.8834 26.7638 24.517C27.2266 24.1441 27.577 23.6299 27.8148 22.9742C28.0591 22.3121 28.1812 21.5504 28.1812 20.689C28.1812 19.8341 28.0623 19.082 27.8245 18.4327C27.5866 17.7835 27.2363 17.2756 26.7735 16.9092C26.3106 16.5428 25.7417 16.3596 25.0668 16.3596C24.3982 16.3596 23.8326 16.5364 23.3697 16.89C22.9133 17.2435 22.563 17.7449 22.3187 18.3941C22.0745 19.0434 21.9523 19.8083 21.9523 20.689ZM37.8373 28.3739C36.8923 28.3739 36.0503 28.2099 35.311 27.8821C34.5718 27.5478 33.9868 27.0561 33.5561 26.4068C33.1319 25.7512 32.9197 24.9348 32.9197 23.9577C32.9197 23.1349 33.0708 22.4439 33.3729 21.8846C33.6751 21.3254 34.0865 20.8754 34.6071 20.5347C35.1278 20.194 35.7192 19.9369 36.3813 19.7633C37.0498 19.5898 37.7505 19.4676 38.4833 19.3969C39.3447 19.3069 40.0389 19.2234 40.566 19.1462C41.0932 19.0627 41.4756 18.9405 41.7135 18.7798C41.9513 18.6191 42.0702 18.3813 42.0702 18.0663V18.0085C42.0702 17.3978 41.8774 16.9253 41.4917 16.591C41.1124 16.2568 40.5725 16.0897 39.8718 16.0897C39.1326 16.0897 38.5444 16.2536 38.1073 16.5814C37.6702 16.9028 37.3809 17.3078 37.2395 17.7963L33.4404 17.4878C33.6333 16.5878 34.0125 15.81 34.5782 15.1544C35.1439 14.4923 35.8735 13.9844 36.767 13.6309C37.6669 13.2709 38.7083 13.0909 39.8911 13.0909C40.7139 13.0909 41.5013 13.1873 42.2534 13.3802C43.012 13.573 43.6837 13.8719 44.2687 14.2769C44.8601 14.6819 45.3261 15.2026 45.6668 15.839C46.0075 16.4689 46.1778 17.2242 46.1778 18.1049V28.0942H42.2824V26.0404H42.1667C41.9288 26.5033 41.6106 26.9115 41.2121 27.265C40.8135 27.6121 40.3346 27.8853 39.7754 28.0846C39.2161 28.2774 38.5701 28.3739 37.8373 28.3739ZM39.0136 25.539C39.6179 25.539 40.1514 25.4201 40.6143 25.1823C41.0771 24.938 41.4403 24.6102 41.7038 24.1988C41.9674 23.7874 42.0992 23.3213 42.0992 22.8006V21.229C41.9706 21.3125 41.7938 21.3897 41.5688 21.4604C41.3503 21.5247 41.1028 21.5857 40.8264 21.6436C40.55 21.695 40.2736 21.7432 39.9972 21.7882C39.7207 21.8268 39.47 21.8621 39.2451 21.8943C38.7629 21.965 38.3419 22.0775 37.9819 22.2318C37.6219 22.386 37.3423 22.5949 37.143 22.8585C36.9438 23.1156 36.8441 23.437 36.8441 23.8227C36.8441 24.382 37.0466 24.8094 37.4516 25.1051C37.863 25.3944 38.3837 25.539 39.0136 25.539ZM51.9722 19.5319V28.0942H47.8646V13.2838H51.7793V15.8968H51.9529C52.2807 15.0354 52.8303 14.354 53.6017 13.8527C54.3731 13.3448 55.3084 13.0909 56.4076 13.0909C57.4361 13.0909 58.3328 13.3159 59.0978 13.7659C59.8627 14.2158 60.4573 14.8587 60.8816 15.6943C61.3059 16.5236 61.518 17.5135 61.518 18.6641V28.0942H57.4104V19.3969C57.4168 18.4906 57.1854 17.7835 56.7162 17.2756C56.2469 16.7614 55.6009 16.5043 54.7781 16.5043C54.2252 16.5043 53.7367 16.6232 53.3124 16.861C52.8946 17.0989 52.5668 17.446 52.3289 17.9024C52.0975 18.3524 51.9786 18.8955 51.9722 19.5319ZM71.1331 13.2838V16.3693H62.214V13.2838H71.1331ZM64.2389 9.73542H68.3465V23.5431C68.3465 23.9224 68.4043 24.2181 68.52 24.4302C68.6357 24.6359 68.7964 24.7805 69.0022 24.8641C69.2143 24.9477 69.4585 24.9894 69.735 24.9894C69.9278 24.9894 70.1206 24.9734 70.3135 24.9412C70.5063 24.9027 70.6542 24.8737 70.757 24.8544L71.4031 27.911C71.1974 27.9753 70.9081 28.0492 70.5353 28.1328C70.1624 28.2228 69.7092 28.2774 69.1757 28.2967C68.1858 28.3353 67.318 28.2035 66.5723 27.9014C65.8331 27.5993 65.2577 27.13 64.8463 26.4936C64.4349 25.8572 64.2325 25.0537 64.2389 24.0831V9.73542ZM74.8447 33.6482C74.324 33.6482 73.8355 33.6064 73.3791 33.5228C72.9291 33.4457 72.5563 33.346 72.2606 33.2239L73.1862 30.1577C73.6684 30.3055 74.1023 30.3859 74.488 30.3987C74.8801 30.4116 75.2175 30.3216 75.5004 30.1288C75.7897 29.9359 76.0243 29.6081 76.2043 29.1452L76.4453 28.5185L71.1325 13.2838H75.4522L78.5184 24.1602H78.6727L81.7678 13.2838H86.1165L80.3601 29.6948C80.0837 30.4919 79.7076 31.1862 79.2319 31.7776C78.7627 32.3754 78.1681 32.835 77.4481 33.1564C76.7282 33.4842 75.8604 33.6482 74.8447 33.6482Z" fill="white"/>
<path d="M90.3806 9.95685V5.08803H92.848C93.0459 5.08803 93.2615 5.14521 93.4946 5.25956C93.7277 5.36952 93.9256 5.54105 94.0883 5.77415C94.2554 6.00286 94.339 6.29314 94.339 6.645C94.339 7.00125 94.2532 7.30473 94.0817 7.55543C93.9102 7.80173 93.7013 7.98865 93.455 8.1162C93.2131 8.24375 92.9844 8.30752 92.7689 8.30752H90.9876V7.51584H92.439C92.5841 7.51584 92.7403 7.44327 92.9074 7.29813C93.0789 7.15299 93.1647 6.93528 93.1647 6.645C93.1647 6.34592 93.0789 6.1436 92.9074 6.03804C92.7403 5.93249 92.5929 5.87971 92.4654 5.87971H91.4494V9.95685H90.3806ZM93.323 7.66099L94.5369 9.95685H93.3626L92.1751 7.66099H93.323ZM92.2279 12.8597C91.4978 12.8597 90.8138 12.7233 90.1761 12.4506C89.5384 12.178 88.9776 11.7997 88.4938 11.3159C88.01 10.8321 87.6317 10.2713 87.359 9.63359C87.0864 8.99584 86.95 8.31192 86.95 7.58182C86.95 6.85171 87.0864 6.16779 87.359 5.53005C87.6317 4.89231 88.01 4.33154 88.4938 3.84773C88.9776 3.36393 89.5384 2.98568 90.1761 2.713C90.8138 2.44031 91.4978 2.30396 92.2279 2.30396C92.958 2.30396 93.6419 2.44031 94.2796 2.713C94.9174 2.98568 95.4782 3.36393 95.962 3.84773C96.4458 4.33154 96.824 4.89231 97.0967 5.53005C97.3694 6.16779 97.5057 6.85171 97.5057 7.58182C97.5057 8.31192 97.3694 8.99584 97.0967 9.63359C96.824 10.2713 96.4458 10.8321 95.962 11.3159C95.4782 11.7997 94.9174 12.178 94.2796 12.4506C93.6419 12.7233 92.958 12.8597 92.2279 12.8597ZM92.2279 11.593C92.9668 11.593 93.6397 11.4127 94.2467 11.052C94.8536 10.6914 95.3374 10.2076 95.6981 9.6006C96.0587 8.99364 96.239 8.32072 96.239 7.58182C96.239 6.84292 96.0587 6.16999 95.6981 5.56304C95.3374 4.95608 94.8536 4.47228 94.2467 4.11163C93.6397 3.75097 92.9668 3.57065 92.2279 3.57065C91.489 3.57065 90.816 3.75097 90.2091 4.11163C89.6021 4.47228 89.1183 4.95608 88.7577 5.56304C88.397 6.16999 88.2167 6.84292 88.2167 7.58182C88.2167 8.32072 88.397 8.99364 88.7577 9.6006C89.1183 10.2076 89.6021 10.6914 90.2091 11.052C90.816 11.4127 91.489 11.593 92.2279 11.593Z" fill="white"/>
</svg>
