<svg width="190" height="83" viewBox="0 0 190 83" fill="none" xmlns="http://www.w3.org/2000/svg">
<path opacity="0.8" d="M43.2694 37.2378H53.7869L43.2694 21.3335H32.7522L43.2694 37.2378Z" fill="black"/>
<path opacity="0.9" d="M32.4983 37.2378H21.981L32.4983 21.3335H43.0156L32.4983 37.2378Z" fill="black"/>
<path opacity="0.6" d="M43.271 53.1423V37.238H53.788V53.1423H43.271Z" fill="black"/>
<path d="M21.9792 53.1423V37.238H32.4966V53.1423H21.9792Z" fill="black"/>
<path d="M80.6775 31.52V53.1628H76.3364V43.9535H67.0655V53.1628H62.7249V31.52H67.0655V40.4189H76.3364V31.52H80.6775Z" fill="black"/>
<path d="M91.3375 53.4415C89.6839 53.4415 88.1954 53.0799 86.8725 52.3563C85.5495 51.6122 84.5058 50.5681 83.741 49.2248C82.9966 47.8811 82.6248 46.3306 82.6248 44.5739C82.6248 42.8167 83.0072 41.2663 83.772 39.9227C84.5572 38.5791 85.6221 37.5456 86.9654 36.8221C88.3092 36.0779 89.8078 35.7058 91.4614 35.7058C93.115 35.7058 94.6137 36.0779 95.9574 36.8221C97.3012 37.5456 98.3555 38.5791 99.1203 39.9227C99.9055 41.2663 100.299 42.8167 100.299 44.5739C100.299 46.3306 99.8953 47.8811 99.0893 49.2248C98.3037 50.5681 97.2286 51.6122 95.8645 52.3563C94.5207 53.0799 93.0119 53.4415 91.3375 53.4415ZM91.3375 49.6586C92.1231 49.6586 92.857 49.4727 93.539 49.1009C94.2419 48.7079 94.8 48.1289 95.2134 47.3641C95.6268 46.5993 95.8335 45.6693 95.8335 44.5739C95.8335 42.9407 95.3993 41.6901 94.5313 40.8219C93.6837 39.9331 92.6396 39.4886 91.3995 39.4886C90.1593 39.4886 89.1152 39.9331 88.268 40.8219C87.4408 41.6901 87.0274 42.9407 87.0274 44.5739C87.0274 46.2067 87.4306 47.4677 88.2366 48.3564C89.0638 49.2248 90.0973 49.6586 91.3375 49.6586Z" fill="black"/>
<path d="M123.575 35.7368C125.683 35.7368 127.379 36.3879 128.66 37.6902C129.962 38.9718 130.614 40.7702 130.614 43.0854V53.1627H126.272V43.6745C126.272 42.3309 125.931 41.3077 125.249 40.6048C124.567 39.8814 123.637 39.5196 122.459 39.5196C121.28 39.5196 120.34 39.8814 119.637 40.6048C118.955 41.3077 118.614 42.3309 118.614 43.6745V53.1627H114.273V43.6745C114.273 42.3309 113.932 41.3077 113.25 40.6048C112.568 39.8814 111.637 39.5196 110.459 39.5196C109.26 39.5196 108.309 39.8814 107.606 40.6048C106.924 41.3077 106.583 42.3309 106.583 43.6745V53.1627H102.242V35.9849H106.583V38.0623C107.141 37.3388 107.855 36.7704 108.723 36.357C109.611 35.9435 110.583 35.7368 111.637 35.7368C112.981 35.7368 114.18 36.0262 115.234 36.605C116.288 37.1631 117.105 37.9693 117.684 39.0235C118.242 38.0313 119.048 37.2354 120.102 36.636C121.177 36.0366 122.335 35.7368 123.575 35.7368Z" fill="black"/>
<path d="M149.461 44.2017C149.461 44.8218 149.419 45.3799 149.337 45.876H136.779C136.882 47.1162 137.317 48.0878 138.081 48.7906C138.846 49.4935 139.787 49.8449 140.903 49.8449C142.515 49.8449 143.663 49.1522 144.345 47.7673H149.027C148.531 49.4209 147.58 50.7854 146.174 51.8601C144.768 52.9144 143.043 53.4415 140.996 53.4415C139.342 53.4415 137.854 53.0799 136.531 52.3563C135.229 51.6122 134.206 50.5681 133.461 49.2248C132.738 47.8811 132.376 46.3306 132.376 44.5739C132.376 42.7959 132.738 41.2353 133.461 39.8917C134.185 38.5481 135.198 37.5145 136.5 36.791C137.802 36.0676 139.301 35.7058 140.996 35.7058C142.629 35.7058 144.086 36.0572 145.368 36.7601C146.67 37.4629 147.673 38.4654 148.376 39.7677C149.099 41.0493 149.461 42.5273 149.461 44.2017ZM144.965 42.9615C144.944 41.8451 144.541 40.9563 143.756 40.2948C142.97 39.6127 142.009 39.2716 140.872 39.2716C139.797 39.2716 138.887 39.6023 138.143 40.2638C137.42 40.9046 136.975 41.8038 136.81 42.9615H144.965Z" fill="black"/>
<path d="M167.823 35.9849L157.187 61.2863H152.567L156.288 52.7285L149.405 35.9849H154.273L158.707 47.9846L163.203 35.9849H167.823Z" fill="black"/>
</svg>
