<svg width="40" height="41" viewBox="0 0 40 41" fill="none" xmlns="http://www.w3.org/2000/svg">
<rect width="40" height="40" transform="translate(0 0.5)" fill="#ECECEC"/>
<g clip-path="url(#clip0_2_4751)">
<path opacity="0.4" d="M19.9999 29.1666C25.0625 29.1666 29.1666 25.0625 29.1666 19.9999C29.1666 14.9373 25.0625 10.8333 19.9999 10.8333C14.9373 10.8333 10.8333 14.9373 10.8333 19.9999C10.8333 25.0625 14.9373 29.1666 19.9999 29.1666Z" stroke="black" stroke-width="1.83333" stroke-linecap="round" stroke-linejoin="round"/>
<path d="M16.7917 22.4445C16.7917 23.6258 17.7494 24.5834 18.9306 24.5834H20.9167C22.1824 24.5834 23.2084 23.5574 23.2084 22.2917C23.2084 21.0261 22.1824 20.0001 20.9167 20.0001H19.0834C17.8178 20.0001 16.7917 18.9741 16.7917 17.7084C16.7917 16.4428 17.8178 15.4167 19.0834 15.4167H21.0695C22.2508 15.4167 23.2084 16.3744 23.2084 17.5556M20.0001 14.0417V15.4167M20.0001 24.5834V25.9584" stroke="black" stroke-width="1.83333" stroke-linecap="round" stroke-linejoin="round"/>
</g>
<defs>
<clipPath id="clip0_2_4751">
<rect width="22" height="22" fill="white" transform="translate(9 9)"/>
</clipPath>
</defs>
</svg>
