<svg width="40" height="41" viewBox="0 0 40 41" fill="none" xmlns="http://www.w3.org/2000/svg">
<rect width="40" height="40" transform="translate(0 0.5)" fill="#ECECEC"/>
<g clip-path="url(#clip0_2_4761)">
<path opacity="0.4" d="M15.4166 17.7083L10.8333 19.9999L19.672 24.4193C19.7922 24.4794 19.8523 24.5095 19.9154 24.5213C19.9713 24.5318 20.0286 24.5318 20.0844 24.5213C20.1475 24.5095 20.2076 24.4794 20.3279 24.4193L29.1666 19.9999L24.5833 17.7083M15.4166 22.2916L10.8333 24.5833L19.672 29.0026C19.7922 29.0627 19.8523 29.0928 19.9154 29.1046C19.9713 29.1151 20.0286 29.1151 20.0844 29.1046C20.1475 29.0928 20.2076 29.0627 20.3279 29.0026L29.1666 24.5833L24.5833 22.2916" stroke="black" stroke-width="1.83333" stroke-linecap="round" stroke-linejoin="round"/>
<path d="M20.3279 10.9973C20.2076 10.9372 20.1475 10.9071 20.0844 10.8953C20.0286 10.8848 19.9713 10.8848 19.9154 10.8953C19.8523 10.9071 19.7922 10.9372 19.672 10.9973L10.8333 15.4167L19.672 19.836C19.7922 19.8962 19.8523 19.9262 19.9154 19.9381C19.9713 19.9485 20.0286 19.9485 20.0844 19.9381C20.1475 19.9262 20.2076 19.8962 20.3279 19.836L29.1666 15.4167L20.3279 10.9973Z" stroke="black" stroke-width="1.83333" stroke-linecap="round" stroke-linejoin="round"/>
</g>
<defs>
<clipPath id="clip0_2_4761">
<rect width="22" height="22" fill="white" transform="translate(9 9)"/>
</clipPath>
</defs>
</svg>
